v -.837946 1.660183 -.498328
v -.837946 1.055817 -.498328
v -.974847 1.055817 -.012591
v -.974847 1.660183 -.012591
v .012591 1.791862 -.974847
v .012591 1.055817 -.974847
v -.476519 1.055817 -.850537
v -.476519 1.521345 -.850537
v .974847 1.845391 .012591
v .974847 1.055817 .012591
v .850538 1.055817 -.476519
v .850538 1.660183 -.476519
v .476519 1.660183 .850538
v .476519 1.055817 .850538
v .837946 1.055817 .498328
v .837946 1.660183 .498328
v -.850538 1.660183 .476519
v -.850538 1.055817 .476519
v -.498328 1.055817 .837946
v -.498328 1.660183 .837946
v -.781766 .511301 -.010097
v -.682078 .511301 .382139
v .498328 1.055817 -.837946
v .399628 .511301 -.671981
v .010097 .511301 -.781766
v .671981 .511301 .399628
v .781766 .511301 .010097
v -.399628 .511301 .671981
v -.010097 .511301 .781766
v -.012591 1.055817 .974847
v -.382139 .511301 -.682078
v -.212071 .134484 -.378525
v -.372921 .134484 -.221777
v -.671981 .511301 -.399628
v .682078 .511301 -.382138
v .378525 .134484 -.212071
v .221777 .134484 -.372921
v -.005604 .134484 .433848
v .212071 .134484 .378525
v .382139 .511301 .682078
v -.378525 .134484 .212071
v -.221777 .134484 .372921
v 0 0 0
v -.433848 .134484 -.005604
v .005604 .134484 -.433848
v .433848 .134484 .005604
v .372921 .134484 .221777
v -.003938 3.494838 -.433866
v 0 3.629323 0
v .213523 3.494838 -.377708
v .37377 3.494838 -.220343
v .67351 3.118022 -.397044
v .384755 3.118022 -.680606
v .433866 3.494838 -.003938
v .377708 3.494838 .213523
v .680606 3.118022 .384755
v .781799 3.118022 -.007095
v .220343 3.494838 .37377
v .003938 3.494838 .433866
v .007096 3.118022 .781799
v .397045 3.118022 .67351
v -.213523 3.494838 .377708
v -.433866 3.494838 .003938
v -.781799 3.118022 .007096
v -.67351 3.118022 .397045
v -.37377 3.494838 .220343
v -.377708 3.494838 -.213523
v -.220343 3.494838 -.37377
v -.007096 3.118022 -.781799
v -.008848 2.573506 -.974888
v -.495107 2.573506 -.839853
v -.397045 3.118022 -.67351
v .974888 2.476085 -.008848
v .839854 2.434668 -.495106
v .495107 2.573506 .839854
v .848702 2.526401 .479781
v -.384755 3.118022 .680606
v -.479781 2.573506 .848702
v .008848 2.758713 .974888
v -.680606 3.118022 -.384755
v -.848702 2.573506 -.479781
v -.974888 2.462548 .008848
v .194454 2.618219 .194454
v .336805 2.416905 .336805
v .476314 2.416905 0
v .275 2.618219 0
v 0 2.691905 0
v 0 2.618219 .275
v -.275 2.618219 0
v -.476314 2.416905 0
v -.336805 2.416905 .336805
v -.194454 2.618219 .194454
v -.194454 2.618219 -.194454
v 0 2.618219 -.275
v 0 2.416905 -.476314
v -.336805 2.416905 -.336805
v .194454 2.618219 -.194454
v .55 2.141905 0
v .388909 2.141905 -.388909
v .336805 2.416905 -.336805
v -.388909 2.141905 .388909
v 0 2.141905 .55
v 0 2.416905 .476314
v -.388909 2.141905 -.388909
v -.55 2.141905 0
v 0 1.866905 .476314
v .336805 1.866905 .336805
v .388909 2.141905 .388909
v -.476314 1.866905 0
v -.336805 1.866905 .336805
v .336805 1.866905 -.336805
v 0 1.866905 -.476314
v 0 2.141905 -.55
v .194454 1.665591 .194454
v .275 1.665591 0
v .476314 1.866905 0
v -.194454 1.665591 .194454
v 0 1.665591 .275
v 0 1.665591 -.275
v -.194454 1.665591 -.194454
v -.336805 1.866905 -.336805
v 0 1.591905 0
v -.275 1.665591 0
v .194454 1.665591 -.194454
v .025922 1.902757 .44368
v -.016014 2.031283 .959815
v -.125804 1.952056 .443732
v .025922 2.160889 .443951
v .119694 2.031823 .443815
v -.108879 2.315522 .491996
v -.047352 2.290334 .359447
v -.076386 2.353611 .333945
v -.137913 2.3788 .466494
v -.214349 2.252245 .455064
v -.152822 2.227056 .322515
v -.08557 2.227056 .353732
v -.147098 2.252245 .486281
v -.205165 2.3788 .435277
v -.143638 2.353611 .302728
v -.181856 2.290334 .297013
v -.243383 2.315522 .429562
v .089971 2.315522 .491996
v .028444 2.290334 .359447
v .066662 2.227056 .353732
v .128189 2.252245 .486281
v .195441 2.252245 .455064
v .133914 2.227056 .322515
v .162948 2.290334 .297013
v .224475 2.315522 .429562
v .186257 2.3788 .435277
v .124729 2.353611 .302728
v .057478 2.353611 .333945
v .119005 2.3788 .466494
v -.012591 1.858237 .974847
v .498328 1.613079 -.837946
v .479781 2.573506 -.848701
v -.839854 2.573506 .495107
v -.125804 2.11159 .443899
vt .613269 .945839
vt .604111 .949458
vt .60179 .938044
vt .612156 .939316
vt .623431 .952933
vt .622104 .963246
vt .611407 .9587
vt .616315 .952401
vt .636424 .943266
vt .647062 .944335
vt .644545 .955696
vt .635012 .949191
vt .631662 .932054
vt .637794 .925048
vt .644377 .933959
vt .635762 .937277
vt .614524 .933219
vt .60496 .925573
vt .616629 .919935
vt .620128 .929704
vt .648576 .942524
vt .637483 .943138
vt .635552 .937022
vt .645449 .930222
vt .615155 .965485
vt .619707 .955351
vt .626001 .956293
vt .627028 .966951
vt .604557 .934244
vt .614137 .939025
vt .612759 .945239
vt .601666 .945853
vt .635087 .922891
vt .630535 .933026
vt .624241 .932083
vt .623214 .921426
vt .631933 .954103
vt .628043 .948442
vt .629844 .946376
vt .636105 .949351
vt .61469 .951355
vt .620706 .947221
vt .622782 .948945
vt .624773 .938995
vt .622198 .939935
vt .618309 .934274
vt .629535 .941155
vt .627459 .939432
vt .625121 .944188
vt .6304 .943711
vt .625469 .949382
vt .619842 .944665
vt .620398 .942001
vt .625806 .945811
vt .626105 .939158
vt .629152 .945026
vt .63167 .942692
vt .639079 .947397
vt .633275 .952812
vt .632712 .93942
vt .631999 .936058
vt .639937 .931983
vt .641512 .939841
vt .629697 .933503
vt .626405 .932505
vt .626717 .923588
vt .634602 .925778
vt .623059 .93329
vt .619499 .938897
vt .610698 .938476
vt .613132 .93092
vt .620541 .935624
vt .620212 .942259
vt .622514 .944813
vt .626027 .964319
vt .624892 .95421
vt .631578 .952074
vt .638193 .96094
vt .597824 .945228
vt .609615 .943283
vt .612577 .9488
vt .60402 .955625
vt .607081 .922701
vt .613588 .931496
vt .609581 .936759
vt .596118 .931799
vt .631031 .921402
vt .627434 .930232
vt .620096 .927175
vt .619254 .919682
vt .648935 .951702
vt .636176 .947082
vt .635731 .940398
vt .64724 .938434
vt .060648 .940996
vt .06534 .937105
vt .068211 .945632
vt .061983 .945038
vt .056518 .944422
vt .056923 .938937
vt .051053 .943805
vt .044825 .943211
vt .048625 .934906
vt .052886 .940042
vt .052388 .947847
vt .056113 .949907
vt .055546 .956137
vt .047696 .951739
vt .06015 .948801
vt .076327 .946196
vt .07022 .960941
vt .064411 .953938
vt .042817 .927902
vt .058437 .924626
vt .05749 .932706
vt .041609 .956787
vt .036709 .942648
vt .060392 .926894
vt .059658 .934768
vt .050997 .937209
vt .045953 .930825
vt .079963 .948173
vt .070903 .947328
vt .067718 .938768
vt .073855 .933427
vt .043332 .958933
vt .049469 .953593
vt .057529 .957592
vt .056795 .965466
vt .055001 .942016
vt .052928 .945652
vt .046284 .945032
vt .062894 .942751
vt .059092 .940838
vt .058095 .951523
vt .062186 .950345
vt .06619 .955152
vt .058593 .94618
vt .064259 .946709
vt .054293 .949609
vt .300623 .949209
vt .309227 .940483
vt .303587 .951362
vt .298791 .954847
vt .286701 .956849
vt .297659 .951362
vt .899198 .941231
vt .910746 .940996
vt .911343 .944566
vt .900335 .960577
vt .927798 .920631
vt .91679 .936643
vt .913244 .937364
vt .909327 .926497
vt .918806 .954711
vt .91489 .943845
vt .917387 .940212
vt .928935 .939978
vt .927124 .933412
vt .917362 .939585
vt .915005 .936839
vt .916145 .917442
vt .90337 .932016
vt .912342 .93929
vt .912084 .943691
vt .902321 .949865
vt .913301 .965835
vt .914441 .946437
vt .917103 .943986
vt .926075 .95126
vt .6261 .929866
vt .630012 .953505
vt .637928 .962829
vt .645685 .954133
vt .604793 .958154
vt .612314 .925547
vt .625494 .954728
vt .618936 .925504
vt .617609 .952539
vt .612274 .946333
vt .617836 .953036
vt .633153 .934193
vt .071427 .932056
vt .054599 .964217
vt .037224 .944188
vt .071234 .961535
vt .292019 .940483
vt .302455 .954847
vt .300623 .966964
vt .922599 .946294
vt .919434 .952932
vt .912103 .95351
vt .907937 .94745
vt .911102 .940812
vt .918433 .940234
vt .909483 .940523
vt .916815 .941101
vt .919979 .947739
vt .915813 .953799
vt .908482 .953221
vt .905317 .946583
vt .633712 .962369
vt .62808 .91998
vt .614104 .962363
vt .640938 .928207
vt .314545 .956849
vn -.9625 0 -.2713
vn -.2463 0 -.9692
vn .9692 0 -.2463
vn .6979 0 .7162
vn -.7162 0 .6979
vn -.9169 -.3241 .233
vn .2566 -.3241 -.9106
vn .9106 -.3241 .2566
vn -.2566 -.3241 .9106
vn -.5208 -.6656 -.5345
vn .5345 -.6656 -.5208
vn .1838 -.6656 .7233
vn -.5345 -.6656 .5208
vn -.2941 -.9522 -.0829
vn -.0753 -.9522 -.2961
vn .2961 -.9522 -.0753
vn .2132 -.9522 .2188
vn -.0829 -.9522 .2941
vn .0764 .9522 -.2958
vn .5229 .6656 -.5325
vn .2944 .9522 -.0818
vn .7226 .6656 .1866
vn .218 .9522 .2141
vn .1997 .6656 .7191
vn -.0764 .9522 .2958
vn -.7191 .6656 .1997
vn -.218 .9522 -.2141
vn -.2531 .3241 -.9115
vn .9241 .2709 -.2694
vn .6891 .3119 .6541
vn -.3054 .3804 .8729
vn -.933 .2967 -.2036
vn .6786 .6786 .2811
vn .1066 .9604 .2573
vn -.6786 .6786 .2811
vn -.2573 .9604 -.1066
vn -.2811 .6786 -.6786
vn .1066 .9604 -.2573
vn .8968 .2403 -.3715
vn -.3715 .2403 .8968
vn -.8968 .2403 -.3715
vn .3715 -.2403 .8968
vn -.8968 -.2403 .3715
vn .3715 -.2403 -.8968
vn .6786 -.6786 .2811
vn -.2811 -.6786 .6786
vn -.2811 -.6786 -.6786
vn .1066 -.9604 .2573
vn -.2573 -.9604 .1066
vn .1066 -.9604 -.2573
vn -.3023 -.9305 .2071
vn .7913 .5747 .2087
vn .8213 .4927 .2876
vn -.0715 -.9855 .1541
vn -.7498 .4927 -.4417
vn -.7498 -.4927 .4417
vn .8213 -.4927 -.2876
vn -.0715 .9855 -.1541
vn -.0389 .9985 -.0393
vn -.6603 -.3241 -.6775
vn .9169 -.3241 -.233
vn .6603 -.3241 .6775
vn -.6775 -.3241 .6603
vn -.7183 -.6656 -.2024
vn -.1838 -.6656 -.7233
vn -.2024 -.6656 .7183
vn -.2132 -.9522 -.2188
vn .2188 -.9522 -.2132
vn .2941 -.9522 .0829
vn .0753 -.9522 .2961
vn -.2188 -.9522 .2132
vn .1866 .6656 -.7226
vn .2141 .9522 -.218
vn .7191 .6656 -.1997
vn .2958 .9522 .0764
vn .5325 .6656 .5229
vn .0818 .9522 .2944
vn -.1866 .6656 .7226
vn -.2141 .9522 .218
vn -.2958 .9522 -.0764
vn -.5325 .6656 -.5229
vn -.0818 .9522 -.2944
vn -.0248 -.9989 .0397
vn .6786 .6786 -.2811
vn .2573 .9604 .1066
vn .2811 .6786 .6786
vn -.1066 .9604 .2573
vn -.6786 .6786 -.2811
vn -.1066 .9604 -.2573
vn .8968 .2403 .3715
vn -.8968 .2403 .3715
vn .3715 .2403 -.8968
vn .8968 -.2403 -.3715
vn -.3715 -.2403 .8968
vn -.8968 -.2403 -.3715
vn .2811 -.6786 .6786
vn -.6786 -.6786 .2811
vn .2811 -.6786 -.6786
vn .2573 -.9604 -.1066
vn -.1066 -.9604 .2573
vn -.1066 -.9604 -.2573
vn .7913 -.5751 .2075
vn -.3023 .93 .2091
vn -.4149 .1699 .8939
vn .4149 -.1699 -.8939
vn .4149 .1699 .8939
vn -.4149 -.1699 -.8939
vn -.9692 0 .2463
vn -.6979 0 -.7162
vn .7162 0 -.6979
vn .9625 0 .2713
vn -.2713 0 .9625
vn -.9106 -.3241 -.2566
vn -.233 -.3241 -.9169
vn .233 -.3241 .9169
vn .7183 -.6656 .2024
vn -.2961 -.9522 .0753
vn .0829 -.9522 -.2941
vn -.1997 .6656 -.7191
vn -.5229 .6656 .5325
vn -.2944 .9522 .0818
vn -.7226 .6656 -.1866
vn .2365 .3241 -.916
vn .9307 .2894 .2238
vn .3212 .3804 .8673
vn -.9292 .2967 .2205
vn -.675 .3241 -.6629
vn -.2811 .6786 .6786
vn -.2573 .9604 .1066
vn .2811 .6786 -.6786
vn .2573 .9604 -.1066
vn .3715 .2403 .8968
vn -.3715 .2403 -.8968
vn .8968 -.2403 .3715
vn .6786 -.6786 -.2811
vn -.6786 -.6786 -.2811
vn .2573 -.9604 .1066
vn -.9781 -.0002 .2081
vn .7498 -.4927 .4417
vn -.8213 -.4927 -.2876
vn .0715 .9855 -.1541
vn .0715 -.9855 .1541
vn .7498 .4927 -.4417
vn -.8213 .4927 .2876
vn .2713 0 -.9625
vn .2463 0 .9692
vn .6775 -.3241 -.6603
vn -.7233 -.6656 .1838
vn .2024 -.6656 -.7183
vn .7233 -.6656 -.1838
vn .5208 -.6656 .5345
vn .7014 .2904 -.6509
vn -.6629 .3241 .675
vn -.3715 -.2403 -.8968
vn -.2573 -.9604 -.1066
vn 0 .001 -1.
s 1.
f 1/1/1 2/2/1 3/3/1 4/4/1
f 5/5/2 6/6/2 7/7/2 8/8/2
f 9/9/3 10/10/3 11/11/3 12/12/3
f 13/13/4 14/14/4 15/15/4 16/16/4
f 17/17/5 18/18/5 19/19/5 20/20/5
f 3/21/6 21/22/6 22/23/6 18/24/6
f 23/25/7 24/26/7 25/27/7 6/28/7
f 15/29/8 26/30/8 27/31/8 10/32/8
f 19/33/9 28/34/9 29/35/9 30/36/9
f 31/37/10 32/38/10 33/39/10 34/40/10
f 35/41/11 36/42/11 37/43/11 24/26/11
f 29/35/12 38/44/12 39/45/12 40/46/12
f 22/23/13 41/47/13 42/48/13 28/34/13
f 33/39/14 43/49/14 44/50/14
f 45/51/15 43/49/15 32/38/15
f 46/52/16 43/49/16 36/42/16
f 39/45/17 43/49/17 47/53/17
f 42/48/18 43/49/18 38/44/18
f 48/54/19 49/55/19 50/56/19
f 51/57/20 52/58/20 53/59/20 50/56/20
f 51/57/21 49/55/21 54/60/21
f 55/61/22 56/62/22 57/63/22 54/60/22
f 55/61/23 49/55/23 58/64/23
f 59/65/24 60/66/24 61/67/24 58/64/24
f 59/65/25 49/55/25 62/68/25
f 63/69/26 64/70/26 65/71/26 66/72/26
f 67/73/27 49/55/27 68/74/27
f 69/75/28 70/76/28 71/77/28 72/78/28
f 57/79/29 73/80/29 74/81/29 52/82/29
f 61/83/30 75/84/30 76/85/30 56/86/30
f 77/87/31 78/88/31 79/89/31 60/90/31
f 80/91/32 81/92/32 82/93/32 64/94/32
f 83/95/33 84/96/33 85/97/33 86/98/33
f 83/95/34 87/99/34 88/100/34
f 89/101/35 90/102/35 91/103/35 92/104/35
f 89/101/36 87/99/36 93/105/36
f 94/106/37 95/107/37 96/108/37 93/105/37
f 94/106/38 87/99/38 97/109/38
f 85/97/39 98/110/39 99/111/39 100/112/39
f 91/103/40 101/113/40 102/114/40 103/115/40
f 96/108/41 104/116/41 105/117/41 90/102/41
f 102/118/42 106/119/42 107/120/42 108/121/42
f 105/122/43 109/123/43 110/124/43 101/125/43
f 99/126/44 111/127/44 112/128/44 113/129/44
f 107/120/45 114/130/45 115/131/45 116/132/45
f 110/124/46 117/133/46 118/134/46 106/119/46
f 112/128/47 119/135/47 120/136/47 121/137/47
f 118/134/48 122/138/48 114/130/48
f 123/139/49 122/138/49 117/133/49
f 124/140/50 122/138/50 119/135/50
f 125/141/51 126/142/51 127/143/51
f 128/144/52 126/145/52 129/146/52
f 130/147/53 131/148/53 132/149/53 133/150/53
f 134/151/54 135/152/54 136/153/54 137/154/54
f 138/155/55 139/156/55 140/157/55 141/158/55
f 142/159/56 143/160/56 144/161/56 145/162/56
f 146/163/57 147/164/57 148/165/57 149/166/57
f 150/167/58 151/168/58 152/169/58 153/170/58
f 4/4/59 17/17/59 20/20/59 154/171/59 13/13/59 16/16/59 9/9/59 12/12/59 155/172/59 5/5/59 8/8/59 1/1/59
f 7/173/60 31/37/60 34/40/60 2/174/60
f 10/32/61 27/31/61 35/41/61 11/175/61
f 14/176/62 40/46/62 26/30/62 15/29/62
f 18/24/63 22/23/63 28/34/63 19/33/63
f 34/40/64 33/39/64 44/50/64 21/22/64
f 25/27/65 45/51/65 32/38/65 31/37/65
f 28/34/66 42/48/66 38/44/66 29/35/66
f 32/38/67 43/49/67 33/39/67
f 36/42/68 43/49/68 37/43/68
f 47/53/69 43/49/69 46/52/69
f 38/44/70 43/49/70 39/45/70
f 41/47/71 43/49/71 42/48/71
f 50/56/72 53/59/72 69/177/72 48/54/72
f 50/56/73 49/55/73 51/57/73
f 54/60/74 57/63/74 52/58/74 51/57/74
f 54/60/75 49/55/75 55/61/75
f 58/64/76 61/67/76 56/62/76 55/61/76
f 58/64/77 49/55/77 59/65/77
f 62/68/78 77/178/78 60/66/78 59/65/78
f 62/68/79 49/55/79 66/72/79
f 63/69/80 49/55/80 67/73/80
f 68/74/81 72/179/81 80/180/81 67/73/81
f 68/74/82 49/55/82 48/54/82
f 156/181/83 74/81/83 73/80/83 76/85/83 75/84/83 79/89/83 78/88/83 157/182/83 82/93/83 81/92/83 71/77/83 70/76/83
f 86/98/84 85/97/84 100/112/84 97/109/84
f 86/98/85 87/99/85 83/95/85
f 88/100/86 103/115/86 84/96/86 83/95/86
f 88/100/87 87/99/87 92/104/87
f 93/105/88 96/108/88 90/102/88 89/101/88
f 93/105/89 87/99/89 94/106/89
f 84/96/90 108/183/90 98/110/90 85/97/90
f 90/102/91 105/117/91 101/113/91 91/103/91
f 100/112/92 99/111/92 113/184/92 95/107/92
f 98/185/93 116/132/93 111/127/93 99/126/93
f 101/125/94 110/124/94 106/119/94 102/118/94
f 104/186/95 121/137/95 109/123/95 105/122/95
f 106/119/96 118/134/96 114/130/96 107/120/96
f 109/123/97 123/139/97 117/133/97 110/124/97
f 111/127/98 124/140/98 119/135/98 112/128/98
f 115/131/99 122/138/99 124/140/99
f 117/133/100 122/138/100 118/134/100
f 119/135/101 122/138/101 120/136/101
f 129/146/102 126/187/102 125/141/102
f 158/188/103 126/189/103 128/144/103
f 130/190/104 133/191/104 138/192/104 141/193/104 134/194/104 137/195/104
f 136/153/105 135/152/105 140/157/105 139/156/105 132/149/105 131/148/105
f 145/196/106 146/197/106 149/198/106 150/199/106 153/200/106 142/201/106
f 143/160/107 152/169/107 151/168/107 148/165/107 147/164/107 144/161/107
f 4/4/108 3/3/108 18/18/108 17/17/108
f 8/8/109 7/7/109 2/2/109 1/1/109
f 12/12/110 11/11/110 23/202/110 155/172/110
f 16/16/111 15/15/111 10/10/111 9/9/111
f 20/20/112 19/19/112 30/203/112 154/171/112
f 2/174/113 34/40/113 21/22/113 3/21/113
f 6/28/114 25/27/114 31/37/114 7/173/114
f 30/36/115 29/35/115 40/46/115 14/176/115
f 26/30/116 47/53/116 46/52/116 27/31/116
f 44/50/117 43/49/117 41/47/117
f 37/43/118 43/49/118 45/51/118
f 48/54/119 69/177/119 72/179/119 68/74/119
f 66/72/120 65/71/120 77/178/120 62/68/120
f 66/72/121 49/55/121 63/69/121
f 67/73/122 80/180/122 64/70/122 63/69/122
f 53/204/123 156/181/123 70/76/123 69/75/123
f 56/86/124 76/85/124 73/80/124 57/79/124
f 60/90/125 79/89/125 75/84/125 61/83/125
f 64/94/126 82/93/126 157/182/126 65/205/126
f 72/78/127 71/77/127 81/92/127 80/91/127
f 92/104/128 91/103/128 103/115/128 88/100/128
f 92/104/129 87/99/129 89/101/129
f 97/109/130 100/112/130 95/107/130 94/106/130
f 97/109/131 87/99/131 86/98/131
f 103/115/132 102/114/132 108/183/132 84/96/132
f 95/107/133 113/184/133 104/116/133 96/108/133
f 108/121/134 107/120/134 116/132/134 98/185/134
f 116/132/135 115/131/135 124/140/135 111/127/135
f 121/137/136 120/136/136 123/139/136 109/123/136
f 114/130/137 122/138/137 115/131/137
f 127/143/138 126/206/138 158/188/138
f 137/154/139 136/153/139 131/148/139 130/147/139
f 141/158/140 140/157/140 135/152/140 134/151/140
f 133/150/141 132/149/141 139/156/141 138/155/141
f 145/162/142 144/161/142 147/164/142 146/163/142
f 149/166/143 148/165/143 151/168/143 150/167/143
f 153/170/144 152/169/144 143/160/144 142/159/144
f 155/172/145 23/202/145 6/6/145 5/5/145
f 154/171/146 30/203/146 14/14/146 13/13/146
f 11/175/147 35/41/147 24/26/147 23/25/147
f 21/22/148 44/50/148 41/47/148 22/23/148
f 24/26/149 37/43/149 45/51/149 25/27/149
f 27/31/150 46/52/150 36/42/150 35/41/150
f 40/46/151 39/45/151 47/53/151 26/30/151
f 52/82/152 74/81/152 156/181/152 53/204/152
f 65/205/153 157/182/153 78/88/153 77/87/153
f 113/129/154 112/128/154 121/137/154 104/186/154
f 120/136/155 122/138/155 123/139/155
f 125/141/156 127/143/156 158/188/156 128/144/156 129/146/156
